# xmcd
#
# Track frame offsets:
#	180
#	21517
#	39407
#	51383
#	70164
#	83082
#	98712
#	113123
#	128703
#	143565
#	160714
#	173091
#
# Disc length: 2581 seconds
#
# Revision: 0
# Processed by: cddbd v1.5.2PL0 Copyright (c) Steve Scherf et al.
# Submitted via: EasyCDDAExtractor 10.0.2.1
#
DISCID=970a130c
DTITLE=Dale and Grace - In God's Hands
DYEAR=2004
DGENRE=Gospel
TTITLE0=How Great Thou Art
TTITLE1=I'd Rather Have Jesus
TTITLE2=Learning To Lean
TTITLE3=The Old Rugged Cross
TTITLE4=In God's Hands
TTITLE5=In The Garden
TTITLE6=Prayer Is The Key
TTITLE7=Crying In The Chapel
TTITLE8=I Know A Man
TTITLE9=Through It All
TTITLE10=Until Then
TTITLE11=Wind Beneath My Wings
EXTD=
EXTT0=
EXTT1=
EXTT2=
EXTT3=
EXTT4=
EXTT5=
EXTT6=
EXTT7=
EXTT8=
EXTT9=
EXTT10=
EXTT11=
PLAYORDER=
